<?xml version="1.0" encoding="UTF-8"?>
<svg enable-background="new 0 0 76 18" version="1.1" viewBox="0 0 76 18" xml:space="preserve" xmlns="http://www.w3.org/2000/svg">
<rect x="41.7" y=".1" width="15" height="1.7" fill="#c0a"><animate attributeName="opacity" attributeType="CSS" dur="3s" repeatCount="indefinite" values="1; 0; 0; 1"/></rect>
<rect x="44.2" y="4.2" width="10" height="1.7" fill="#c0a"><animate attributeName="opacity" attributeType="CSS" dur="3s" repeatCount="indefinite" values="1; 0; 1; 1"/></rect>
<path d="m50.9 10.1v-1.7h-3.4v1.7h3.4z" fill="#c0a"/>
<path d="m7.2 17.5c0.6-0.3 1.1-0.7 1.4-1.2 0.4-0.5 0.6-1.1 0.8-1.8s0.2-1.5 0.2-2.4v-0.6h-2.5v0.6 1.1c0 0.3-0.1 0.7-0.2 1-0.1 0.4-0.2 0.6-0.4 0.9s-0.4 0.4-0.6 0.6c-0.3 0.1-0.6 0.2-1 0.2s-0.7-0.1-1-0.2-0.5-0.3-0.7-0.6c-0.2-0.2-0.3-0.5-0.4-0.8s-0.2-0.7-0.2-1 0-0.7 0-1.1v-6.3-1.2c0-0.3 0.1-0.7 0.2-1 0.2-0.4 0.3-0.7 0.4-0.9 0.2-0.2 0.4-0.4 0.7-0.5s0.6-0.2 1-0.2c0.3 0 0.6 0 0.8 0.1 0.3 0.1 0.5 0.2 0.7 0.3 0.1 0.2 0.2 0.4 0.3 0.5s0.2 0.4 0.3 0.7 0.1 0.5 0.1 0.8v0.9 0.6h2.5v-0.6c0-0.8-0.1-1.6-0.3-2.2s-0.4-1.2-0.8-1.7-0.8-0.8-1.4-1.1-1.3-0.3-2.1-0.3-1.4 0.1-2 0.3-1 0.5-1.4 0.9c-0.3 0.3-0.6 0.8-0.8 1.3-0.3 0.6-0.4 1.2-0.5 1.8s-0.1 1.3-0.1 2.1v5c0 0.8 0 1.5 0.1 2.1s0.3 1.2 0.5 1.8 0.5 1 0.9 1.4c0.3 0.3 0.8 0.6 1.3 0.8 0.6 0.2 1.2 0.3 1.9 0.3 0.9 0 1.7-0.1 2.3-0.4zm8-13.5l1.2 7.5h-2.5l1.3-7.5zm-2.5 13.8l0.9-4.4h3.1l0.9 4.4h2.5l-3.7-17.5h-2.5l-3.8 17.5h2.6zm16.6-1c0.8-0.7 1.2-1.7 1.2-3 0-1.9-0.8-3.5-2.5-4.8l-3.1-2.5c-0.8-0.7-1.3-1.5-1.3-2.5 0-0.6 0.2-1.1 0.5-1.4s0.8-0.5 1.4-0.5c0.8 0 1.3 0.2 1.7 0.7s0.7 1.2 0.8 2v0.5l2.5-0.6c0-0.2 0-0.4-0.1-0.6-0.2-1.3-0.7-2.3-1.5-2.9s-2-1-3.4-1c-1.3 0-2.4 0.4-3.2 1.1s-1.2 1.7-1.2 3c0 0.9 0.2 1.7 0.5 2.4 0.4 0.7 0.9 1.2 1.4 1.7l3.1 2.5c0.3 0.2 0.5 0.4 0.7 0.6s0.4 0.4 0.6 0.6 0.4 0.6 0.5 0.9 0.1 0.7 0.1 1c0 1.3-0.6 1.9-1.9 1.9-1.5 0-2.4-1.3-2.5-3.8l-2.5 0.6c0.1 1.6 0.6 2.9 1.4 3.8s2 1.4 3.6 1.4c1.4 0 2.4-0.3 3.2-1.1zm7.4 1v-15.3h3.1v-2.2h-8.8v2.2h3.1v15.3h2.6zm11.5-5.2h2v5.1h-2v-5.1zm17.1 5.2v-1.9h-4.3v-15.6h-2.5v17.5h6.8zm8-0.3c0.6-0.3 1.1-0.7 1.5-1.2s0.6-1.1 0.8-1.8 0.3-1.5 0.3-2.4v-6.3c0-1.8-0.4-3.3-1.1-4.2-0.8-1-2-1.5-3.7-1.5-0.9 0-1.6 0.1-2.3 0.4-0.6 0.3-1.1 0.6-1.5 1.1s-0.6 1.1-0.8 1.8-0.3 1.5-0.3 2.4v6.4c0 0.9 0.1 1.7 0.3 2.4s0.4 1.3 0.8 1.8 0.9 0.9 1.5 1.2 1.4 0.4 2.3 0.4c0.8-0.1 1.5-0.2 2.2-0.5zm-4.6-4.7v-7.6c0-1 0.2-1.8 0.5-2.3s0.9-0.8 1.8-0.8 1.5 0.3 1.8 0.8 0.5 1.3 0.5 2.3v7.6c0 1-0.2 1.8-0.5 2.3s-0.9 0.8-1.8 0.8-1.5-0.3-1.8-0.8-0.5-1.3-0.5-2.3z" fill="#262626"/>
</svg>